<?xml version="1.0" encoding="UTF-8" standalone="no"?>
<!DOCTYPE svg PUBLIC "-//W3C//DTD SVG 1.1//EN"
 "http://www.w3.org/Graphics/SVG/1.1/DTD/svg11.dtd">
<!-- Generated by graphviz version 2.40.1 (20161225.0304)
 -->
<!-- Title: G Pages: 1 -->
<svg width="1651pt" height="389pt"
 viewBox="0.00 0.00 1650.74 389.30" xmlns="http://www.w3.org/2000/svg" xmlns:xlink="http://www.w3.org/1999/xlink">
<g id="graph0" class="graph" transform="scale(1 1) rotate(0) translate(21.6 367.6986)">
<title>G</title>
<polygon fill="#111111" stroke="transparent" points="-21.6,21.6 -21.6,-367.6986 1629.142,-367.6986 1629.142,21.6 -21.6,21.6"/>
<!-- Utils/aldUtil.js -->
<g id="node1" class="node">
<title>Utils/aldUtil.js</title>
<path fill="none" stroke="#c6c5fe" d="M451.5435,-285.1482C451.5435,-285.1482 367.6479,-285.1482 367.6479,-285.1482 363.615,-285.1482 359.582,-281.1152 359.582,-277.0823 359.582,-277.0823 359.582,-269.0164 359.582,-269.0164 359.582,-264.9834 363.615,-260.9505 367.6479,-260.9505 367.6479,-260.9505 451.5435,-260.9505 451.5435,-260.9505 455.5764,-260.9505 459.6094,-264.9834 459.6094,-269.0164 459.6094,-269.0164 459.6094,-277.0823 459.6094,-277.0823 459.6094,-281.1152 455.5764,-285.1482 451.5435,-285.1482"/>
<text text-anchor="middle" x="409.5957" y="-269.8986" font-family="Arial" font-size="14.00" fill="#c6c5fe">Utils/aldUtil.js</text>
</g>
<!-- centerLayer/aldingCenter.js -->
<g id="node2" class="node">
<title>centerLayer/aldingCenter.js</title>
<path fill="none" stroke="#ff6c60" d="M920.8819,-264.1482C920.8819,-264.1482 750.1455,-264.1482 750.1455,-264.1482 746.1125,-264.1482 742.0796,-260.1152 742.0796,-256.0823 742.0796,-256.0823 742.0796,-248.0164 742.0796,-248.0164 742.0796,-243.9834 746.1125,-239.9505 750.1455,-239.9505 750.1455,-239.9505 920.8819,-239.9505 920.8819,-239.9505 924.9148,-239.9505 928.9478,-243.9834 928.9478,-248.0164 928.9478,-248.0164 928.9478,-256.0823 928.9478,-256.0823 928.9478,-260.1152 924.9148,-264.1482 920.8819,-264.1482"/>
<text text-anchor="middle" x="835.5137" y="-248.8986" font-family="Arial" font-size="14.00" fill="#ff6c60">centerLayer/aldingCenter.js</text>
</g>
<!-- Utils/aldUtil.js&#45;&gt;centerLayer/aldingCenter.js -->
<g id="edge1" class="edge">
<title>Utils/aldUtil.js&#45;&gt;centerLayer/aldingCenter.js</title>
<path fill="none" stroke="#757575" d="M459.7064,-270.5786C526.3362,-267.2934 645.7217,-261.4071 732.0853,-257.1489"/>
<polygon fill="#757575" stroke="#757575" points="732.3676,-260.6393 742.183,-256.651 732.0228,-253.6478 732.3676,-260.6393"/>
</g>
<!-- dataBase/aldsd/aldsdquery.js -->
<g id="node3" class="node">
<title>dataBase/aldsd/aldsdquery.js</title>
<path fill="none" stroke="#c6c5fe" d="M698.1593,-323.1482C698.1593,-323.1482 516.578,-323.1482 516.578,-323.1482 512.5451,-323.1482 508.5122,-319.1152 508.5122,-315.0823 508.5122,-315.0823 508.5122,-307.0164 508.5122,-307.0164 508.5122,-302.9834 512.5451,-298.9505 516.578,-298.9505 516.578,-298.9505 698.1593,-298.9505 698.1593,-298.9505 702.1922,-298.9505 706.2251,-302.9834 706.2251,-307.0164 706.2251,-307.0164 706.2251,-315.0823 706.2251,-315.0823 706.2251,-319.1152 702.1922,-323.1482 698.1593,-323.1482"/>
<text text-anchor="middle" x="607.3687" y="-307.8986" font-family="Arial" font-size="14.00" fill="#c6c5fe">dataBase/aldsd/aldsdquery.js</text>
</g>
<!-- Utils/aldUtil.js&#45;&gt;dataBase/aldsd/aldsdquery.js -->
<g id="edge2" class="edge">
<title>Utils/aldUtil.js&#45;&gt;dataBase/aldsd/aldsdquery.js</title>
<path fill="none" stroke="#757575" d="M459.7578,-282.6874C482.3884,-287.0357 509.558,-292.256 534.3842,-297.0261"/>
<polygon fill="#757575" stroke="#757575" points="534.0135,-300.5188 544.4943,-298.9687 535.3344,-293.6446 534.0135,-300.5188"/>
</g>
<!-- Utils/util.js -->
<g id="node4" class="node">
<title>Utils/util.js</title>
<path fill="none" stroke="#ff6c60" d="M1082.378,-264.1482C1082.378,-264.1482 1019.4961,-264.1482 1019.4961,-264.1482 1015.4631,-264.1482 1011.4302,-260.1152 1011.4302,-256.0823 1011.4302,-256.0823 1011.4302,-248.0164 1011.4302,-248.0164 1011.4302,-243.9834 1015.4631,-239.9505 1019.4961,-239.9505 1019.4961,-239.9505 1082.378,-239.9505 1082.378,-239.9505 1086.4109,-239.9505 1090.4438,-243.9834 1090.4438,-248.0164 1090.4438,-248.0164 1090.4438,-256.0823 1090.4438,-256.0823 1090.4438,-260.1152 1086.4109,-264.1482 1082.378,-264.1482"/>
<text text-anchor="middle" x="1050.937" y="-248.8986" font-family="Arial" font-size="14.00" fill="#ff6c60">Utils/util.js</text>
</g>
<!-- centerLayer/aldingCenter.js&#45;&gt;Utils/util.js -->
<g id="edge7" class="edge">
<title>centerLayer/aldingCenter.js&#45;&gt;Utils/util.js</title>
<path fill="none" stroke="#757575" d="M928.7486,-252.0493C953.6675,-252.0493 979.6393,-252.0493 1001.1978,-252.0493"/>
<polygon fill="#757575" stroke="#757575" points="1001.4026,-255.5494 1011.4025,-252.0493 1001.4025,-248.5494 1001.4026,-255.5494"/>
</g>
<!-- config.js -->
<g id="node6" class="node">
<title>config.js</title>
<path fill="none" stroke="#cfffac" d="M1588.3701,-203.1482C1588.3701,-203.1482 1536.7832,-203.1482 1536.7832,-203.1482 1532.7502,-203.1482 1528.7173,-199.1152 1528.7173,-195.0823 1528.7173,-195.0823 1528.7173,-187.0164 1528.7173,-187.0164 1528.7173,-182.9834 1532.7502,-178.9505 1536.7832,-178.9505 1536.7832,-178.9505 1588.3701,-178.9505 1588.3701,-178.9505 1592.4031,-178.9505 1596.436,-182.9834 1596.436,-187.0164 1596.436,-187.0164 1596.436,-195.0823 1596.436,-195.0823 1596.436,-199.1152 1592.4031,-203.1482 1588.3701,-203.1482"/>
<text text-anchor="middle" x="1562.5767" y="-187.8986" font-family="Arial" font-size="14.00" fill="#cfffac">config.js</text>
</g>
<!-- centerLayer/aldingCenter.js&#45;&gt;config.js -->
<g id="edge9" class="edge">
<title>centerLayer/aldingCenter.js&#45;&gt;config.js</title>
<path fill="none" stroke="#757575" d="M886.321,-239.936C952.0598,-224.9419 1070.3585,-200.2599 1173.1436,-191.0493 1298.141,-179.8483 1446.6138,-184.8906 1518.8022,-188.5096"/>
<polygon fill="#757575" stroke="#757575" points="1518.7201,-192.0099 1528.8875,-189.0311 1519.0817,-185.0193 1518.7201,-192.0099"/>
</g>
<!-- centerLayer/redisLayer.js -->
<g id="node10" class="node">
<title>centerLayer/redisLayer.js</title>
<path fill="none" stroke="#c6c5fe" d="M1129.2847,-146.1482C1129.2847,-146.1482 972.5893,-146.1482 972.5893,-146.1482 968.5564,-146.1482 964.5234,-142.1152 964.5234,-138.0823 964.5234,-138.0823 964.5234,-130.0164 964.5234,-130.0164 964.5234,-125.9834 968.5564,-121.9505 972.5893,-121.9505 972.5893,-121.9505 1129.2847,-121.9505 1129.2847,-121.9505 1133.3176,-121.9505 1137.3506,-125.9834 1137.3506,-130.0164 1137.3506,-130.0164 1137.3506,-138.0823 1137.3506,-138.0823 1137.3506,-142.1152 1133.3176,-146.1482 1129.2847,-146.1482"/>
<text text-anchor="middle" x="1050.937" y="-130.8986" font-family="Arial" font-size="14.00" fill="#c6c5fe">centerLayer/redisLayer.js</text>
</g>
<!-- centerLayer/aldingCenter.js&#45;&gt;centerLayer/redisLayer.js -->
<g id="edge8" class="edge">
<title>centerLayer/aldingCenter.js&#45;&gt;centerLayer/redisLayer.js</title>
<path fill="none" stroke="#757575" d="M849.2624,-239.92C871.8753,-220.5345 918.9858,-182.476 964.7305,-160.0493 972.9767,-156.0065 981.9783,-152.45 990.9542,-149.3694"/>
<polygon fill="#757575" stroke="#757575" points="992.2222,-152.6375 1000.647,-146.213 990.0547,-145.9815 992.2222,-152.6375"/>
</g>
<!-- log/log4js.js -->
<g id="node11" class="node">
<title>log/log4js.js</title>
<path fill="none" stroke="#c6c5fe" d="M1473.6213,-346.1482C1473.6213,-346.1482 1400.45,-346.1482 1400.45,-346.1482 1396.4171,-346.1482 1392.3841,-342.1152 1392.3841,-338.0823 1392.3841,-338.0823 1392.3841,-330.0164 1392.3841,-330.0164 1392.3841,-325.9834 1396.4171,-321.9505 1400.45,-321.9505 1400.45,-321.9505 1473.6213,-321.9505 1473.6213,-321.9505 1477.6542,-321.9505 1481.6871,-325.9834 1481.6871,-330.0164 1481.6871,-330.0164 1481.6871,-338.0823 1481.6871,-338.0823 1481.6871,-342.1152 1477.6542,-346.1482 1473.6213,-346.1482"/>
<text text-anchor="middle" x="1437.0356" y="-330.8986" font-family="Arial" font-size="14.00" fill="#c6c5fe">log/log4js.js</text>
</g>
<!-- centerLayer/aldingCenter.js&#45;&gt;log/log4js.js -->
<g id="edge10" class="edge">
<title>centerLayer/aldingCenter.js&#45;&gt;log/log4js.js</title>
<path fill="none" stroke="#757575" d="M867.143,-264.1576C893.0025,-273.5502 930.7175,-286.1028 964.7305,-293.0493 1113.6647,-323.4661 1293.5264,-331.3346 1382.1755,-333.3581"/>
<polygon fill="#757575" stroke="#757575" points="1382.1969,-336.8593 1392.2688,-333.572 1382.3452,-329.8608 1382.1969,-336.8593"/>
</g>
<!-- dataBase/aldsd/aldsdquery.js&#45;&gt;centerLayer/aldingCenter.js -->
<g id="edge14" class="edge">
<title>dataBase/aldsd/aldsdquery.js&#45;&gt;centerLayer/aldingCenter.js</title>
<path fill="none" stroke="#757575" d="M654.0877,-298.9674C690.2283,-289.6212 740.4216,-276.6408 778.8541,-266.7019"/>
<polygon fill="#757575" stroke="#757575" points="780.0519,-270.0074 788.8571,-264.1151 778.2992,-263.2303 780.0519,-270.0074"/>
</g>
<!-- dataBase/aldsd/aldsdquery.js&#45;&gt;Utils/util.js -->
<g id="edge13" class="edge">
<title>dataBase/aldsd/aldsdquery.js&#45;&gt;Utils/util.js</title>
<path fill="none" stroke="#757575" d="M706.3546,-300.7026C769.9858,-293.7163 854.3659,-283.8278 928.7305,-273.0493 952.7483,-269.5681 979.3115,-265.0806 1001.5208,-261.148"/>
<polygon fill="#757575" stroke="#757575" points="1002.1644,-264.5885 1011.3938,-259.3858 1000.9344,-257.6974 1002.1644,-264.5885"/>
</g>
<!-- pay/wechatpay.js -->
<g id="node7" class="node">
<title>pay/wechatpay.js</title>
<path fill="none" stroke="#ff6c60" d="M1318.0899,-304.1482C1318.0899,-304.1482 1211.5136,-304.1482 1211.5136,-304.1482 1207.4807,-304.1482 1203.4477,-300.1152 1203.4477,-296.0823 1203.4477,-296.0823 1203.4477,-288.0164 1203.4477,-288.0164 1203.4477,-283.9834 1207.4807,-279.9505 1211.5136,-279.9505 1211.5136,-279.9505 1318.0899,-279.9505 1318.0899,-279.9505 1322.1228,-279.9505 1326.1558,-283.9834 1326.1558,-288.0164 1326.1558,-288.0164 1326.1558,-296.0823 1326.1558,-296.0823 1326.1558,-300.1152 1322.1228,-304.1482 1318.0899,-304.1482"/>
<text text-anchor="middle" x="1264.8018" y="-288.8986" font-family="Arial" font-size="14.00" fill="#ff6c60">pay/wechatpay.js</text>
</g>
<!-- dataBase/aldsd/aldsdquery.js&#45;&gt;pay/wechatpay.js -->
<g id="edge16" class="edge">
<title>dataBase/aldsd/aldsdquery.js&#45;&gt;pay/wechatpay.js</title>
<path fill="none" stroke="#757575" d="M706.5049,-308.1843C840.2143,-304.32 1075.1461,-297.5304 1193.0458,-294.1231"/>
<polygon fill="#757575" stroke="#757575" points="1193.5004,-297.6115 1203.395,-293.824 1193.2981,-290.6144 1193.5004,-297.6115"/>
</g>
<!-- dataBase/aldsd/aldsdquery.js&#45;&gt;log/log4js.js -->
<g id="edge15" class="edge">
<title>dataBase/aldsd/aldsdquery.js&#45;&gt;log/log4js.js</title>
<path fill="none" stroke="#757575" d="M706.4425,-317.8954C819.3425,-325.3262 1009.4269,-336.7119 1173.1436,-341.0493 1254.5889,-343.2071 1275.0625,-344.5784 1356.46,-341.0493 1364.8287,-340.6865 1373.6727,-340.1126 1382.316,-339.4458"/>
<polygon fill="#757575" stroke="#757575" points="1382.648,-342.9304 1392.3297,-338.6274 1382.0778,-335.9537 1382.648,-342.9304"/>
</g>
<!-- centerLayer/tokenCenter.js -->
<g id="node5" class="node">
<title>centerLayer/tokenCenter.js</title>
<path fill="none" stroke="#c6c5fe" d="M1348.5525,-224.1482C1348.5525,-224.1482 1181.051,-224.1482 1181.051,-224.1482 1177.018,-224.1482 1172.9851,-220.1152 1172.9851,-216.0823 1172.9851,-216.0823 1172.9851,-208.0164 1172.9851,-208.0164 1172.9851,-203.9834 1177.018,-199.9505 1181.051,-199.9505 1181.051,-199.9505 1348.5525,-199.9505 1348.5525,-199.9505 1352.5855,-199.9505 1356.6184,-203.9834 1356.6184,-208.0164 1356.6184,-208.0164 1356.6184,-216.0823 1356.6184,-216.0823 1356.6184,-220.1152 1352.5855,-224.1482 1348.5525,-224.1482"/>
<text text-anchor="middle" x="1264.8018" y="-208.8986" font-family="Arial" font-size="14.00" fill="#c6c5fe">centerLayer/tokenCenter.js</text>
</g>
<!-- Utils/util.js&#45;&gt;centerLayer/tokenCenter.js -->
<g id="edge3" class="edge">
<title>Utils/util.js&#45;&gt;centerLayer/tokenCenter.js</title>
<path fill="none" stroke="#757575" d="M1090.6621,-244.6194C1118.4681,-239.4187 1156.47,-232.311 1189.8797,-226.0623"/>
<polygon fill="#757575" stroke="#757575" points="1190.8983,-229.4326 1200.0844,-224.1537 1189.6114,-222.5519 1190.8983,-229.4326"/>
</g>
<!-- Utils/util.js&#45;&gt;config.js -->
<g id="edge4" class="edge">
<title>Utils/util.js&#45;&gt;config.js</title>
<path fill="none" stroke="#757575" d="M1090.6103,-251.6626C1167.1058,-250.2144 1339.9557,-243.5223 1481.6113,-213.0493 1493.8492,-210.4167 1506.9947,-207.0724 1519.0593,-203.7909"/>
<polygon fill="#757575" stroke="#757575" points="1520.193,-207.1088 1528.8958,-201.0663 1518.3244,-200.3628 1520.193,-207.1088"/>
</g>
<!-- Utils/util.js&#45;&gt;pay/wechatpay.js -->
<g id="edge5" class="edge">
<title>Utils/util.js&#45;&gt;pay/wechatpay.js</title>
<path fill="none" stroke="#757575" d="M1090.6621,-259.4793C1119.4675,-264.8669 1159.2149,-272.301 1193.4637,-278.7067"/>
<polygon fill="#757575" stroke="#757575" points="1192.9564,-282.1724 1203.4294,-280.5706 1194.2434,-275.2917 1192.9564,-282.1724"/>
</g>
<!-- centerLayer/tokenCenter.js&#45;&gt;config.js -->
<g id="edge12" class="edge">
<title>centerLayer/tokenCenter.js&#45;&gt;config.js</title>
<path fill="none" stroke="#757575" d="M1356.5738,-205.5773C1410.5649,-201.7697 1476.3669,-197.1291 1518.8434,-194.1335"/>
<polygon fill="#757575" stroke="#757575" points="1519.1259,-197.6224 1528.8548,-193.4275 1518.6334,-190.6397 1519.1259,-197.6224"/>
</g>
<!-- pay/wechatpay.js&#45;&gt;centerLayer/aldingCenter.js -->
<g id="edge23" class="edge">
<title>pay/wechatpay.js&#45;&gt;centerLayer/aldingCenter.js</title>
<path fill="none" stroke="#757575" d="M1203.4422,-289.9226C1142.6857,-287.4032 1047.0772,-282.3252 964.7305,-273.0493 947.6444,-271.1247 929.3723,-268.5036 912.1072,-265.7658"/>
<polygon fill="#757575" stroke="#757575" points="912.505,-262.2848 902.0747,-264.1448 911.3883,-269.1952 912.505,-262.2848"/>
</g>
<!-- pay/wechatpay.js&#45;&gt;log/log4js.js -->
<g id="edge24" class="edge">
<title>pay/wechatpay.js&#45;&gt;log/log4js.js</title>
<path fill="none" stroke="#757575" d="M1314.6189,-304.1975C1335.8992,-309.3868 1360.7993,-315.4587 1382.5661,-320.7667"/>
<polygon fill="#757575" stroke="#757575" points="1381.7777,-324.1769 1392.3222,-323.1458 1383.4362,-317.3762 1381.7777,-324.1769"/>
</g>
<!-- pay/pay.js -->
<g id="node16" class="node">
<title>pay/pay.js</title>
<path fill="none" stroke="#cfffac" d="M1467.9649,-304.1482C1467.9649,-304.1482 1406.1064,-304.1482 1406.1064,-304.1482 1402.0735,-304.1482 1398.0405,-300.1152 1398.0405,-296.0823 1398.0405,-296.0823 1398.0405,-288.0164 1398.0405,-288.0164 1398.0405,-283.9834 1402.0735,-279.9505 1406.1064,-279.9505 1406.1064,-279.9505 1467.9649,-279.9505 1467.9649,-279.9505 1471.9978,-279.9505 1476.0308,-283.9834 1476.0308,-288.0164 1476.0308,-288.0164 1476.0308,-296.0823 1476.0308,-296.0823 1476.0308,-300.1152 1471.9978,-304.1482 1467.9649,-304.1482"/>
<text text-anchor="middle" x="1437.0356" y="-288.8986" font-family="Arial" font-size="14.00" fill="#cfffac">pay/pay.js</text>
</g>
<!-- pay/wechatpay.js&#45;&gt;pay/pay.js -->
<g id="edge25" class="edge">
<title>pay/wechatpay.js&#45;&gt;pay/pay.js</title>
<path fill="none" stroke="#757575" d="M1326.0099,-292.0493C1346.2539,-292.0493 1368.5072,-292.0493 1387.7412,-292.0493"/>
<polygon fill="#757575" stroke="#757575" points="1387.7899,-295.5494 1397.7898,-292.0493 1387.7898,-288.5494 1387.7899,-295.5494"/>
</g>
<!-- Utils/wechatUtil.js -->
<g id="node8" class="node">
<title>Utils/wechatUtil.js</title>
<path fill="none" stroke="#c6c5fe" d="M464.2196,-243.1482C464.2196,-243.1482 354.9718,-243.1482 354.9718,-243.1482 350.9388,-243.1482 346.9059,-239.1152 346.9059,-235.0823 346.9059,-235.0823 346.9059,-227.0164 346.9059,-227.0164 346.9059,-222.9834 350.9388,-218.9505 354.9718,-218.9505 354.9718,-218.9505 464.2196,-218.9505 464.2196,-218.9505 468.2526,-218.9505 472.2855,-222.9834 472.2855,-227.0164 472.2855,-227.0164 472.2855,-235.0823 472.2855,-235.0823 472.2855,-239.1152 468.2526,-243.1482 464.2196,-243.1482"/>
<text text-anchor="middle" x="409.5957" y="-227.8986" font-family="Arial" font-size="14.00" fill="#c6c5fe">Utils/wechatUtil.js</text>
</g>
<!-- dataBase/user/userDb.js -->
<g id="node9" class="node">
<title>dataBase/user/userDb.js</title>
<path fill="none" stroke="#c6c5fe" d="M684.1058,-243.1482C684.1058,-243.1482 530.6315,-243.1482 530.6315,-243.1482 526.5986,-243.1482 522.5656,-239.1152 522.5656,-235.0823 522.5656,-235.0823 522.5656,-227.0164 522.5656,-227.0164 522.5656,-222.9834 526.5986,-218.9505 530.6315,-218.9505 530.6315,-218.9505 684.1058,-218.9505 684.1058,-218.9505 688.1387,-218.9505 692.1717,-222.9834 692.1717,-227.0164 692.1717,-227.0164 692.1717,-235.0823 692.1717,-235.0823 692.1717,-239.1152 688.1387,-243.1482 684.1058,-243.1482"/>
<text text-anchor="middle" x="607.3687" y="-227.8986" font-family="Arial" font-size="14.00" fill="#c6c5fe">dataBase/user/userDb.js</text>
</g>
<!-- Utils/wechatUtil.js&#45;&gt;dataBase/user/userDb.js -->
<g id="edge6" class="edge">
<title>Utils/wechatUtil.js&#45;&gt;dataBase/user/userDb.js</title>
<path fill="none" stroke="#757575" d="M472.444,-231.0493C485.1527,-231.0493 498.7813,-231.0493 512.3141,-231.0493"/>
<polygon fill="#757575" stroke="#757575" points="512.6272,-234.5494 522.6272,-231.0493 512.6271,-227.5494 512.6272,-234.5494"/>
</g>
<!-- dataBase/user/userDb.js&#45;&gt;centerLayer/aldingCenter.js -->
<g id="edge17" class="edge">
<title>dataBase/user/userDb.js&#45;&gt;centerLayer/aldingCenter.js</title>
<path fill="none" stroke="#757575" d="M692.3214,-238.8689C705.2437,-240.0584 718.7003,-241.297 731.9655,-242.518"/>
<polygon fill="#757575" stroke="#757575" points="731.7813,-246.0158 742.0601,-243.4472 732.423,-239.0453 731.7813,-246.0158"/>
</g>
<!-- centerLayer/redisLayer.js&#45;&gt;config.js -->
<g id="edge11" class="edge">
<title>centerLayer/redisLayer.js&#45;&gt;config.js</title>
<path fill="none" stroke="#757575" d="M1137.4791,-130.5531C1225.2741,-128.9367 1364.5346,-131.703 1481.6113,-158.0493 1497.8548,-161.7047 1515.0426,-168.2859 1529.3835,-174.6146"/>
<polygon fill="#757575" stroke="#757575" points="1528.2598,-177.949 1538.8104,-178.9167 1531.1661,-171.5808 1528.2598,-177.949"/>
</g>
<!-- log/log4js.js&#45;&gt;config.js -->
<g id="edge21" class="edge">
<title>log/log4js.js&#45;&gt;config.js</title>
<path fill="none" stroke="#757575" d="M1468.5833,-321.8705C1473.2155,-319.3414 1477.7275,-316.4051 1481.6113,-313.0493 1514.7003,-284.4598 1539.8789,-239.2049 1552.8372,-212.5911"/>
<polygon fill="#757575" stroke="#757575" points="1556.0834,-213.9136 1557.1963,-203.3774 1549.7558,-210.92 1556.0834,-213.9136"/>
</g>
<!-- log/config.js -->
<g id="node15" class="node">
<title>log/config.js</title>
<path fill="none" stroke="#cfffac" d="M1599.4415,-346.1482C1599.4415,-346.1482 1525.7119,-346.1482 1525.7119,-346.1482 1521.6789,-346.1482 1517.646,-342.1152 1517.646,-338.0823 1517.646,-338.0823 1517.646,-330.0164 1517.646,-330.0164 1517.646,-325.9834 1521.6789,-321.9505 1525.7119,-321.9505 1525.7119,-321.9505 1599.4415,-321.9505 1599.4415,-321.9505 1603.4744,-321.9505 1607.5074,-325.9834 1607.5074,-330.0164 1607.5074,-330.0164 1607.5074,-338.0823 1607.5074,-338.0823 1607.5074,-342.1152 1603.4744,-346.1482 1599.4415,-346.1482"/>
<text text-anchor="middle" x="1562.5767" y="-330.8986" font-family="Arial" font-size="14.00" fill="#cfffac">log/config.js</text>
</g>
<!-- log/log4js.js&#45;&gt;log/config.js -->
<g id="edge22" class="edge">
<title>log/log4js.js&#45;&gt;log/config.js</title>
<path fill="none" stroke="#757575" d="M1481.6502,-334.0493C1489.8673,-334.0493 1498.5387,-334.0493 1507.0312,-334.0493"/>
<polygon fill="#757575" stroke="#757575" points="1507.2591,-337.5494 1517.259,-334.0493 1507.259,-330.5494 1507.2591,-337.5494"/>
</g>
<!-- fwe/bind&#45;engine.js -->
<g id="node12" class="node">
<title>fwe/bind&#45;engine.js</title>
<path fill="none" stroke="#cfffac" d="M263.7194,-66.1482C263.7194,-66.1482 151.1556,-66.1482 151.1556,-66.1482 147.1227,-66.1482 143.0898,-62.1152 143.0898,-58.0823 143.0898,-58.0823 143.0898,-50.0164 143.0898,-50.0164 143.0898,-45.9834 147.1227,-41.9505 151.1556,-41.9505 151.1556,-41.9505 263.7194,-41.9505 263.7194,-41.9505 267.7523,-41.9505 271.7852,-45.9834 271.7852,-50.0164 271.7852,-50.0164 271.7852,-58.0823 271.7852,-58.0823 271.7852,-62.1152 267.7523,-66.1482 263.7194,-66.1482"/>
<text text-anchor="middle" x="207.4375" y="-50.8986" font-family="Arial" font-size="14.00" fill="#cfffac">fwe/bind&#45;engine.js</text>
</g>
<!-- fwe/proxy&#45;middleware.js -->
<g id="node13" class="node">
<title>fwe/proxy&#45;middleware.js</title>
<path fill="none" stroke="#cfffac" d="M282.5299,-24.1482C282.5299,-24.1482 132.3451,-24.1482 132.3451,-24.1482 128.3122,-24.1482 124.2792,-20.1152 124.2792,-16.0823 124.2792,-16.0823 124.2792,-8.0164 124.2792,-8.0164 124.2792,-3.9834 128.3122,.0495 132.3451,.0495 132.3451,.0495 282.5299,.0495 282.5299,.0495 286.5628,.0495 290.5958,-3.9834 290.5958,-8.0164 290.5958,-8.0164 290.5958,-16.0823 290.5958,-16.0823 290.5958,-20.1152 286.5628,-24.1482 282.5299,-24.1482"/>
<text text-anchor="middle" x="207.4375" y="-8.8986" font-family="Arial" font-size="14.00" fill="#cfffac">fwe/proxy&#45;middleware.js</text>
</g>
<!-- fwe/wechat&#45;web&#45;middleware.js -->
<g id="node14" class="node">
<title>fwe/wechat&#45;web&#45;middleware.js</title>
<path fill="none" stroke="#c6c5fe" d="M302.4989,-223.1482C302.4989,-223.1482 112.3761,-223.1482 112.3761,-223.1482 108.3432,-223.1482 104.3102,-219.1152 104.3102,-215.0823 104.3102,-215.0823 104.3102,-207.0164 104.3102,-207.0164 104.3102,-202.9834 108.3432,-198.9505 112.3761,-198.9505 112.3761,-198.9505 302.4989,-198.9505 302.4989,-198.9505 306.5318,-198.9505 310.5648,-202.9834 310.5648,-207.0164 310.5648,-207.0164 310.5648,-215.0823 310.5648,-215.0823 310.5648,-219.1152 306.5318,-223.1482 302.4989,-223.1482"/>
<text text-anchor="middle" x="207.4375" y="-207.8986" font-family="Arial" font-size="14.00" fill="#c6c5fe">fwe/wechat&#45;web&#45;middleware.js</text>
</g>
<!-- fwe/wechat&#45;web&#45;middleware.js&#45;&gt;Utils/aldUtil.js -->
<g id="edge18" class="edge">
<title>fwe/wechat&#45;web&#45;middleware.js&#45;&gt;Utils/aldUtil.js</title>
<path fill="none" stroke="#757575" d="M246.8955,-223.1507C279.316,-233.0938 325.4132,-247.2313 360.268,-257.921"/>
<polygon fill="#757575" stroke="#757575" points="359.6504,-261.3924 370.2372,-260.9784 361.703,-254.7001 359.6504,-261.3924"/>
</g>
<!-- fwe/wechat&#45;web&#45;middleware.js&#45;&gt;centerLayer/aldingCenter.js -->
<g id="edge20" class="edge">
<title>fwe/wechat&#45;web&#45;middleware.js&#45;&gt;centerLayer/aldingCenter.js</title>
<path fill="none" stroke="#757575" d="M310.8829,-201.3422C412.2925,-194.0526 570.9287,-188.6019 706.2969,-210.0493 737.8686,-215.0515 772.2228,-226.5265 797.5672,-236.22"/>
<polygon fill="#757575" stroke="#757575" points="796.5682,-239.5873 807.1563,-239.9668 799.1158,-233.0673 796.5682,-239.5873"/>
</g>
<!-- fwe/wechat&#45;web&#45;middleware.js&#45;&gt;Utils/wechatUtil.js -->
<g id="edge19" class="edge">
<title>fwe/wechat&#45;web&#45;middleware.js&#45;&gt;Utils/wechatUtil.js</title>
<path fill="none" stroke="#757575" d="M310.5894,-221.2544C319.3783,-222.1239 328.1464,-222.9913 336.6276,-223.8304"/>
<polygon fill="#757575" stroke="#757575" points="336.5166,-227.3364 346.8126,-224.838 337.2058,-220.3704 336.5166,-227.3364"/>
</g>
<!-- server.js -->
<g id="node17" class="node">
<title>server.js</title>
<path fill="none" stroke="#c6c5fe" d="M60.1203,-86.1482C60.1203,-86.1482 8.0038,-86.1482 8.0038,-86.1482 3.9708,-86.1482 -.0621,-82.1152 -.0621,-78.0823 -.0621,-78.0823 -.0621,-70.0164 -.0621,-70.0164 -.0621,-65.9834 3.9708,-61.9505 8.0038,-61.9505 8.0038,-61.9505 60.1203,-61.9505 60.1203,-61.9505 64.1532,-61.9505 68.1861,-65.9834 68.1861,-70.0164 68.1861,-70.0164 68.1861,-78.0823 68.1861,-78.0823 68.1861,-82.1152 64.1532,-86.1482 60.1203,-86.1482"/>
<text text-anchor="middle" x="34.062" y="-70.8986" font-family="Arial" font-size="14.00" fill="#c6c5fe">server.js</text>
</g>
<!-- server.js&#45;&gt;config.js -->
<g id="edge26" class="edge">
<title>server.js&#45;&gt;config.js</title>
<path fill="none" stroke="#757575" d="M68.2035,-77.0869C134.1322,-82.6818 283.5875,-94.0493 409.5957,-94.0493 409.5957,-94.0493 409.5957,-94.0493 1264.8018,-94.0493 1363.3065,-94.0493 1390.3392,-103.001 1481.6113,-140.0493 1502.0707,-148.354 1523.1106,-161.7829 1538.613,-172.7765"/>
<polygon fill="#757575" stroke="#757575" points="1536.9074,-175.8635 1547.0546,-178.9108 1541.0224,-170.2008 1536.9074,-175.8635"/>
</g>
<!-- server.js&#45;&gt;fwe/bind&#45;engine.js -->
<g id="edge27" class="edge">
<title>server.js&#45;&gt;fwe/bind&#45;engine.js</title>
<path fill="none" stroke="#757575" d="M68.3154,-70.098C86.8004,-67.9656 110.3806,-65.2455 132.8537,-62.653"/>
<polygon fill="#757575" stroke="#757575" points="133.5461,-66.0965 143.0791,-61.4735 132.7438,-59.1426 133.5461,-66.0965"/>
</g>
<!-- server.js&#45;&gt;fwe/proxy&#45;middleware.js -->
<g id="edge28" class="edge">
<title>server.js&#45;&gt;fwe/proxy&#45;middleware.js</title>
<path fill="none" stroke="#757575" d="M51.1062,-61.9131C64.8182,-52.6966 84.9034,-40.3939 104.124,-33.0493 110.2697,-30.7009 116.7265,-28.598 123.2857,-26.7179"/>
<polygon fill="#757575" stroke="#757575" points="124.197,-30.0972 132.9448,-24.1201 122.3789,-23.3374 124.197,-30.0972"/>
</g>
<!-- server.js&#45;&gt;fwe/wechat&#45;web&#45;middleware.js -->
<g id="edge29" class="edge">
<title>server.js&#45;&gt;fwe/wechat&#45;web&#45;middleware.js</title>
<path fill="none" stroke="#757575" d="M49.4479,-86.2072C79.8303,-110.2151 147.705,-163.8492 183.8033,-192.3738"/>
<polygon fill="#757575" stroke="#757575" points="181.8207,-195.268 191.8368,-198.7218 186.1607,-189.7757 181.8207,-195.268"/>
</g>
</g>
</svg>
